<?xml version="1.0" encoding="utf-8"?>
<!-- Generator: Adobe Illustrator 27.8.0, SVG Export Plug-In . SVG Version: 6.00 Build 0)  -->
<svg version="1.1" id="Calque_1" xmlns="http://www.w3.org/2000/svg" xmlns:xlink="http://www.w3.org/1999/xlink" x="0px" y="0px"
	 viewBox="0 0 16 16" style="enable-background:new 0 0 16 16;" xml:space="preserve">
<style type="text/css">
	.st0{fill:#707070;}
	.st1{fill:#FFCE00;}
</style>
<path class="st0" d="M11.5,11c-0.3-2.5-2.5-4.3-5-4c-1.7,0.2-3.2,1.4-3.8,3c-1.7,0.1-2.9,1.6-2.7,3.2C0.1,14.8,1.4,16,3,16h8.5
	c1.4,0,2.5-1.1,2.5-2.5S12.9,11,11.5,11L11.5,11z"/>
<path class="st1" d="M10.5,1.5C10.5,1.2,10.3,1,10,1S9.5,1.2,9.5,1.5v1C9.5,2.8,9.7,3,10,3s0.5-0.2,0.5-0.5V1.5z M14.2,3.5
	c0.2-0.2,0.2-0.5,0-0.7c-0.2-0.2-0.5-0.2-0.7,0c0,0,0,0,0,0l-0.7,0.7c-0.2,0.2-0.2,0.5,0,0.7c0.2,0.2,0.5,0.2,0.7,0l0,0L14.2,3.5z
	 M6.5,2.8c-0.2-0.2-0.5-0.2-0.7,0C5.6,3,5.6,3.3,5.8,3.5l0.7,0.7c0.2,0.2,0.5,0.2,0.7,0c0.2-0.2,0.2-0.5,0-0.7L6.5,2.8z M8.2,6.1
	c0.5-1,1.7-1.4,2.7-0.9s1.4,1.7,0.9,2.7c-0.1,0.2-0.2,0.3-0.3,0.5c0.2,0.3,0.4,0.6,0.5,0.9c1.2-1.1,1.3-3,0.2-4.2S9.2,3.7,8,4.8
	C7.6,5.1,7.3,5.5,7.2,6C7.5,6,7.9,6.1,8.2,6.1 M12.7,10.2c0.6,0.2,1.1,0.6,1.5,1.1c0.2-0.2,0.2-0.5,0.1-0.7c0,0,0,0,0,0l-0.7-0.7
	c-0.2-0.2-0.5-0.2-0.7,0C12.7,9.9,12.7,10.1,12.7,10.2 M14.5,6.5C14.2,6.5,14,6.7,14,7s0.2,0.5,0.5,0.5h1C15.8,7.5,16,7.3,16,7
	s-0.2-0.5-0.5-0.5H14.5z"/>
</svg>
