<?xml version="1.0" encoding="utf-8"?>
<!-- Generator: Adobe Illustrator 27.8.0, SVG Export Plug-In . SVG Version: 6.00 Build 0)  -->
<svg version="1.1" xmlns="http://www.w3.org/2000/svg" xmlns:xlink="http://www.w3.org/1999/xlink" x="0px" y="0px"
	 viewBox="0 0 155 650" style="enable-background:new 0 0 155 650;" xml:space="preserve">
<style type="text/css">
	.st0{display:none;}
	.st1{fill:none;stroke:#000000;stroke-width:5.6693;stroke-linecap:square;stroke-miterlimit:10;}
	.st2{fill:none;stroke:#000000;stroke-width:5.6693;stroke-miterlimit:10;}
	.st3{fill:none;stroke:#000000;stroke-width:12.7559;stroke-miterlimit:10;}
	.st4{fill:none;stroke:#000000;stroke-width:8.5039;stroke-miterlimit:10;}
	.st5{fill:none;stroke:#000000;stroke-width:12.7559;stroke-linecap:square;stroke-miterlimit:10;}
	.st6{fill:none;stroke:#000000;stroke-width:4.7663;stroke-miterlimit:10;}
	.st7{fill:none;stroke:#000000;stroke-width:4.488;stroke-miterlimit:10;}
	.st8{fill:none;stroke:#000000;stroke-width:9.0231;stroke-miterlimit:10;}
	.st9{fill:none;stroke:#000000;stroke-width:4.8991;stroke-miterlimit:10;}
	.st10{fill:none;stroke:#000000;stroke-width:8.1082;stroke-miterlimit:10;}
	.st11{fill:none;stroke:#000000;stroke-width:5.577;stroke-miterlimit:10;}
	.st12{fill:none;stroke:#000000;stroke-width:7.2783;stroke-miterlimit:10;}
</style>
<g id="Calque_1" class="st0">
</g>
<g id="Calque_2">
</g>
<g id="Calque_3">
</g>
<g id="Calque_4">
	<g>
		<path class="st3" d="M77.7,509.2c0.5,0,1.1,0.2,1.6,0.3c1.9,0.5,3.7,1.4,5.3,2.6l15.9,11c9,6.2,12,5.2,12,5.2
			c3.3,0.5,5.5-7.7,5.5-7.7c34.8-124.4,24.3-253.3,24.3-253.3c-6.2-101-52.8-139-52.8-139s-6.6-6.6-12.1-6.5
			c-5.5-0.1-12.1,6.5-12.1,6.5s-46.6,38.1-52.8,139c0,0-10.5,128.9,24.3,253.3c0,0,2.2,8.2,5.5,7.7c0,0,3,1.1,12-5.2l15.9-11
			c1.6-1.1,3.4-2,5.4-2.6c0.6-0.2,1.2-0.3,1.7-0.3H77.7z"/>
		<line class="st7" x1="77.2" y1="121.7" x2="77.2" y2="509.5"/>
		<line class="st8" x1="13" y1="360.8" x2="142" y2="360.8"/>
		<line class="st8" x1="18.9" y1="386.4" x2="136.1" y2="386.4"/>
	</g>
</g>
</svg>
