<?xml version="1.0" encoding="utf-8"?>
<!-- Generator: Adobe Illustrator 27.8.0, SVG Export Plug-In . SVG Version: 6.00 Build 0)  -->
<svg version="1.1" xmlns="http://www.w3.org/2000/svg" xmlns:xlink="http://www.w3.org/1999/xlink" x="0px" y="0px"
	 viewBox="0 0 155 650" style="enable-background:new 0 0 155 650;" xml:space="preserve">
<style type="text/css">
	.st0{display:none;}
	.st1{fill:none;stroke:#000000;stroke-width:5.6693;stroke-linecap:square;stroke-miterlimit:10;}
	.st2{fill:none;stroke:#000000;stroke-width:5.6693;stroke-miterlimit:10;}
	.st3{fill:none;stroke:#000000;stroke-width:12.7559;stroke-miterlimit:10;}
	.st4{fill:none;stroke:#000000;stroke-width:8.5039;stroke-miterlimit:10;}
	.st5{fill:none;stroke:#000000;stroke-width:12.7559;stroke-linecap:square;stroke-miterlimit:10;}
	.st6{fill:none;stroke:#000000;stroke-width:4.7663;stroke-miterlimit:10;}
	.st7{fill:none;stroke:#000000;stroke-width:4.488;stroke-miterlimit:10;}
	.st8{fill:none;stroke:#000000;stroke-width:9.0231;stroke-miterlimit:10;}
	.st9{fill:none;stroke:#000000;stroke-width:4.8991;stroke-miterlimit:10;}
	.st10{fill:none;stroke:#000000;stroke-width:8.1082;stroke-miterlimit:10;}
	.st11{fill:none;stroke:#000000;stroke-width:5.577;stroke-miterlimit:10;}
	.st12{fill:none;stroke:#000000;stroke-width:7.2783;stroke-miterlimit:10;}
</style>
<g id="Calque_1" class="st0">
</g>
<g id="Calque_2">
</g>
<g id="Calque_3">
</g>
<g id="Calque_4">
	<g>
		<path class="st3" d="M77.5,556.1c14.3-0.7,24.5-23.6,24.5-23.6c22.1-41.4,28-139.3,28-139.3c8.8-90.7,0-181,0-181
			C117.7,97.4,77.5,93.9,77.5,93.9S37.3,97.4,25,212.1c0,0-8.8,90.3,0,181c0,0,5.9,97.9,28,139.3C53,532.5,63.2,555.4,77.5,556.1z"
			/>
		<line class="st9" x1="77.2" y1="93.9" x2="77.2" y2="556.1"/>
		<line class="st10" x1="25.4" y1="375.9" x2="129.6" y2="375.9"/>
		<line class="st4" x1="25.4" y1="401.5" x2="129.6" y2="401.5"/>
	</g>
</g>
</svg>
