<?xml version="1.0" encoding="utf-8"?>
<!-- Generator: Adobe Illustrator 27.8.0, SVG Export Plug-In . SVG Version: 6.00 Build 0)  -->
<svg version="1.1" xmlns="http://www.w3.org/2000/svg" xmlns:xlink="http://www.w3.org/1999/xlink" x="0px" y="0px"
	 viewBox="0 0 155 650" style="enable-background:new 0 0 155 650;" xml:space="preserve">
<style type="text/css">
	.st0{display:none;}
	.st1{fill:none;stroke:#000000;stroke-width:5.6693;stroke-linecap:square;stroke-miterlimit:10;}
	.st2{fill:none;stroke:#000000;stroke-width:5.6693;stroke-miterlimit:10;}
	.st3{fill:none;stroke:#000000;stroke-width:12.7559;stroke-miterlimit:10;}
	.st4{fill:none;stroke:#000000;stroke-width:8.5039;stroke-miterlimit:10;}
	.st5{fill:none;stroke:#000000;stroke-width:12.7559;stroke-linecap:square;stroke-miterlimit:10;}
	.st6{fill:none;stroke:#000000;stroke-width:4.7663;stroke-miterlimit:10;}
	.st7{fill:none;stroke:#000000;stroke-width:4.488;stroke-miterlimit:10;}
	.st8{fill:none;stroke:#000000;stroke-width:9.0231;stroke-miterlimit:10;}
	.st9{fill:none;stroke:#000000;stroke-width:4.8991;stroke-miterlimit:10;}
	.st10{fill:none;stroke:#000000;stroke-width:8.1082;stroke-miterlimit:10;}
	.st11{fill:none;stroke:#000000;stroke-width:5.577;stroke-miterlimit:10;}
	.st12{fill:none;stroke:#000000;stroke-width:7.2783;stroke-miterlimit:10;}
</style>
<g id="Calque_1" class="st0">
</g>
<g id="Calque_2">
</g>
<g id="Calque_3">
</g>
<g id="Calque_4">
	<g>
		<path class="st3" d="M77.5,631.7c2.3,0,4.4-3.5,4.4-3.5c29.6-58.2,37-159.9,37-159.9c5.9-42.8,5.3-198.2,5.3-198.2
			C121.9,113.2,77.5,18.3,77.5,18.3h0c0,0-44.4,94.9-46.7,251.8c0,0-0.6,155.4,5.3,198.2c0,0,7.4,101.7,37,159.9
			C73.1,628.2,74.9,631.7,77.5,631.7z"/>
		<line class="st11" x1="77.2" y1="29.8" x2="77.2" y2="628.7"/>
		<line class="st12" x1="35.5" y1="448.6" x2="119.5" y2="448.6"/>
		<line class="st12" x1="39.3" y1="474.2" x2="115.7" y2="474.2"/>
	</g>
</g>
</svg>
