<?xml version="1.0" encoding="utf-8"?>
<!-- Generator: Adobe Illustrator 27.8.0, SVG Export Plug-In . SVG Version: 6.00 Build 0)  -->
<svg version="1.1" xmlns="http://www.w3.org/2000/svg" xmlns:xlink="http://www.w3.org/1999/xlink" x="0px" y="0px"
	 viewBox="0 0 155 650" style="enable-background:new 0 0 155 650;" xml:space="preserve">
<style type="text/css">
	.st0{display:none;}
	.st1{fill:none;stroke:#000000;stroke-width:5.6693;stroke-linecap:square;stroke-miterlimit:10;}
	.st2{fill:none;stroke:#000000;stroke-width:5.6693;stroke-miterlimit:10;}
	.st3{fill:none;stroke:#000000;stroke-width:12.7559;stroke-miterlimit:10;}
	.st4{fill:none;stroke:#000000;stroke-width:8.5039;stroke-miterlimit:10;}
	.st5{fill:none;stroke:#000000;stroke-width:12.7559;stroke-linecap:square;stroke-miterlimit:10;}
	.st6{fill:none;stroke:#000000;stroke-width:4.7663;stroke-miterlimit:10;}
	.st7{fill:none;stroke:#000000;stroke-width:4.488;stroke-miterlimit:10;}
	.st8{fill:none;stroke:#000000;stroke-width:9.0231;stroke-miterlimit:10;}
	.st9{fill:none;stroke:#000000;stroke-width:4.8991;stroke-miterlimit:10;}
	.st10{fill:none;stroke:#000000;stroke-width:8.1082;stroke-miterlimit:10;}
	.st11{fill:none;stroke:#000000;stroke-width:5.577;stroke-miterlimit:10;}
	.st12{fill:none;stroke:#000000;stroke-width:7.2783;stroke-miterlimit:10;}
</style>
<g id="Calque_1" class="st0">
</g>
<g id="Calque_2">
</g>
<g id="Calque_3">
</g>
<g id="Calque_4">
	<g>
		<path class="st3" d="M77.2,634.4c17.1,0,23-12.4,23-12.4c7-10.6,13.2-34.1,13.2-34.1c21.2-76.6,21.2-243.7,21.2-243.7
			c2.4-136.9-13.4-266.5-13.4-266.5c-9.4-61-43.5-62.2-43.5-62.2h-0.4c0,0-34,1.2-43.4,62.2c0,0-15.8,129.6-13.4,266.5
			c0,0,0,167.1,21.2,243.7c0,0,6.3,23.5,13.2,34.1c0,0,5.8,12.4,23,12.4H77.2z"/>
		<line class="st2" x1="77.2" y1="15.6" x2="77.2" y2="634.4"/>
		<line class="st4" x1="20.2" y1="448.6" x2="134.8" y2="448.6"/>
		<line class="st4" x1="25.4" y1="474.2" x2="129.6" y2="474.2"/>
	</g>
</g>
</svg>
