<?xml version="1.0" encoding="utf-8"?>
<!-- Generator: Adobe Illustrator 27.8.0, SVG Export Plug-In . SVG Version: 6.00 Build 0)  -->
<svg version="1.1" xmlns="http://www.w3.org/2000/svg" xmlns:xlink="http://www.w3.org/1999/xlink" x="0px" y="0px"
	 viewBox="0 0 155 650" style="enable-background:new 0 0 155 650;" xml:space="preserve">
<style type="text/css">
	.st0{display:none;}
	.st1{fill:none;stroke:#000000;stroke-width:5.6693;stroke-linecap:square;stroke-miterlimit:10;}
	.st2{fill:none;stroke:#000000;stroke-width:5.6693;stroke-miterlimit:10;}
	.st3{fill:none;stroke:#000000;stroke-width:12.7559;stroke-miterlimit:10;}
	.st4{fill:none;stroke:#000000;stroke-width:8.5039;stroke-miterlimit:10;}
	.st5{fill:none;stroke:#000000;stroke-width:12.7559;stroke-linecap:square;stroke-miterlimit:10;}
	.st6{fill:none;stroke:#000000;stroke-width:4.7663;stroke-miterlimit:10;}
	.st7{fill:none;stroke:#000000;stroke-width:4.488;stroke-miterlimit:10;}
	.st8{fill:none;stroke:#000000;stroke-width:9.0231;stroke-miterlimit:10;}
	.st9{fill:none;stroke:#000000;stroke-width:4.8991;stroke-miterlimit:10;}
	.st10{fill:none;stroke:#000000;stroke-width:8.1082;stroke-miterlimit:10;}
	.st11{fill:none;stroke:#000000;stroke-width:5.577;stroke-miterlimit:10;}
	.st12{fill:none;stroke:#000000;stroke-width:7.2783;stroke-miterlimit:10;}
</style>
<g id="Calque_1" class="st0">
</g>
<g id="Calque_2">
</g>
<g id="Calque_3">
</g>
<g id="Calque_4">
	<g>
		<path class="st5" d="M77.5,543.7c7.2,0.3,12-1.7,12-1.7c14.8-5.2,27.4-58.1,27.4-58.1c20-71.4,17.1-194.1,17.1-194.1
			c-3.6-129.2-56.6-183.6-56.6-183.6h0c0,0-53,54.4-56.5,183.6c0,0-2.9,122.7,17.1,194.1c0,0,12.6,52.8,27.4,58.1
			C65.5,542,70.3,544,77.5,543.7L77.5,543.7z"/>
		<line class="st6" x1="77.2" y1="106.3" x2="77.2" y2="543.7"/>
		<line class="st4" x1="20.2" y1="374.3" x2="134.8" y2="374.3"/>
		<line class="st4" x1="25.4" y1="399.9" x2="129.6" y2="399.9"/>
	</g>
</g>
</svg>
